<svg id="Camada_1" data-name="Camada 1" xmlns="http://www.w3.org/2000/svg" viewBox="0 0 288.2 361"><g id="JlOSPp.tif"><path d="M147.68,361h-6.37c-6.14-3.63-12.73-6.67-18.32-11-17.65-13.68-32.17-30.51-45.87-48-26.74-34.14-49.87-70.45-65.65-111.08C5.69,176,1.05,160.73.51,144.65a132.35,132.35,0,0,1,21.67-78.2C55.8,14.78,117.89-10.67,177.73,4.21c56.66,14.1,93.12,49.87,107.62,107,1.67,6.58,2.21,13.44,3.27,20.17v17a4.87,4.87,0,0,0-.52,1.27c-1.83,18-7.53,35-14.73,51.47-20.08,45.92-47.75,86.95-81.23,124.07C179.29,339.44,166,353.4,147.68,361ZM144.57,80.08c-4.31.56-8.67.88-12.94,1.7-35.26,6.79-57,43.08-46.09,76.83,10,31.07,44.06,48.81,76.1,39.67,31-8.83,49.36-38.29,43.42-69.47C199.78,101.13,173.94,80.44,144.57,80.08Z" transform="translate(-0.42)"/></g></svg>